<svg xmlns="http://www.w3.org/2000/svg" xmlns:svg="http://www.w3.org/2000/svg" xmlns:xlink="http://www.w3.org/1999/xlink" id="svg2" width="16" height="16" version="1.1" viewBox="0 0 16 16"><defs id="defs4"><linearGradient id="d-5" x2="0" y1="531.79" y2="544.79" gradientTransform="matrix(0.70711,-0.70711,0.70711,0.70711,-273.44,450.74)" gradientUnits="userSpaceOnUse"><stop id="stop4286"/><stop id="stop4288" offset="1" stop-opacity="0"/></linearGradient><linearGradient id="linearGradient4162"><stop style="stop-color:#f3e0c1;stop-opacity:1" id="stop4164" offset="0"/><stop style="stop-color:#fff7eb;stop-opacity:1" id="stop4166" offset="1"/></linearGradient><linearGradient id="linearGradient4386" x2="0" y1="538.8" y2="505.8" gradientTransform="matrix(1.45455,0,0,1,-198.81,-31)" gradientUnits="userSpaceOnUse"><stop id="stop4390" offset="0" stop-color="#e8b971"/><stop id="stop4388" offset="1" stop-color="#bd8d48"/></linearGradient><linearGradient id="linearGradient4209" x1="8.224" x2="8.224" y1="1037.401" y2="1051.236" gradientUnits="userSpaceOnUse" xlink:href="#linearGradient4386"/><linearGradient id="linearGradient4250" x1="7.038" x2="14.163" y1="4.733" y2="11.858" gradientTransform="translate(0,1036.3622)" gradientUnits="userSpaceOnUse" xlink:href="#d-5"/><linearGradient id="linearGradient4274" x1="5.1" x2="7.957" y1="12.127" y2="14.984" gradientTransform="translate(0,1036.3622)" gradientUnits="userSpaceOnUse" xlink:href="#d-5"/><linearGradient id="linearGradient4282" x1="7.14" x2="8.89" y1="13.175" y2="14.926" gradientTransform="translate(0,1036.3622)" gradientUnits="userSpaceOnUse" xlink:href="#d-5"/><linearGradient id="linearGradient4291" x1="9.132" x2="11.179" y1="12.142" y2="14.189" gradientTransform="translate(0,1036.3622)" gradientUnits="userSpaceOnUse" xlink:href="#d-5"/><linearGradient id="linearGradient4299" x1="7.415" x2="7.415" y1="1047.379" y2="1039.381" gradientUnits="userSpaceOnUse" xlink:href="#linearGradient4162"/></defs><metadata id="metadata7"/><g id="layer1" transform="translate(0,-1036.3622)"><path id="path4230" cx="12" cy="1040.362" r="10" style="opacity:1;fill:#000;fill-opacity:1;stroke:none;stroke-width:2;stroke-miterlimit:4;stroke-dasharray:none;stroke-opacity:1"/><g id="g4366"><circle id="path4136" cx="8" cy="1044.362" r="7" style="opacity:1;fill:url(#linearGradient4209);fill-opacity:1;stroke:none;stroke-width:2;stroke-miterlimit:4;stroke-dasharray:none;stroke-opacity:1"/><path id="rect4253" d="m 5.8671875,1048.536 -0.7011719,0.7032 2.078125,2.08 A 7,7 0 0 0 8,1051.3622 a 7,7 0 0 0 0.65625,-0.037 l -2.7890625,-2.7891 z" style="opacity:.2;fill:url(#linearGradient4274);fill-opacity:1;stroke:none;stroke-width:2;stroke-linecap:round;stroke-linejoin:round;stroke-miterlimit:4;stroke-dasharray:none;stroke-opacity:1"/><path id="path4149" d="m 5.5,1048.3622 a 0.5,0.5 0 0 0 -0.5,0.5 0.5,0.5 0 0 0 0.5,0.5 0.5,0.5 0 0 0 0.5,-0.5 0.5,0.5 0 0 0 -0.5,-0.5 z" style="font-style:normal;font-variant:normal;font-weight:700;font-stretch:normal;font-size:medium;line-height:125%;font-family:Tangerine;-inkscape-font-specification:'Tangerine Bold';letter-spacing:0;word-spacing:0;fill:#eddbbc;fill-opacity:1;stroke:none;stroke-width:1px;stroke-linecap:butt;stroke-linejoin:miter;stroke-opacity:1"/><path id="rect4255" d="m 7.8261719,1049.4813 -0.703125,0.7032 1.1679687,1.1679 a 7,7 0 0 0 1.2382813,-0.1679 l -1.703125,-1.7032 z" style="opacity:.2;fill:url(#linearGradient4282);fill-opacity:1;stroke:none;stroke-width:2;stroke-linecap:round;stroke-linejoin:round;stroke-miterlimit:4;stroke-dasharray:none;stroke-opacity:1"/><path id="path4159" d="M 7.4999999,1049.3622 A 0.5,0.5 0 0 0 7,1049.8622 a 0.5,0.5 0 0 0 0.4999999,0.5 0.5,0.5 0 0 0 0.5000001,-0.5 0.5,0.5 0 0 0 -0.5000001,-0.5 z" style="font-style:normal;font-variant:normal;font-weight:700;font-stretch:normal;font-size:medium;line-height:125%;font-family:Tangerine;-inkscape-font-specification:'Tangerine Bold';letter-spacing:0;word-spacing:0;fill:#eddbbc;fill-opacity:1;stroke:none;stroke-width:1px;stroke-linecap:butt;stroke-linejoin:miter;stroke-opacity:1"/><path id="rect4257" d="m 9.8496094,1048.5028 -0.7011719,0.7032 1.5898435,1.5898 a 7,7 0 0 0 0.927735,-0.4766 l -1.8164066,-1.8164 z" style="opacity:.2;fill:url(#linearGradient4291);fill-opacity:1;stroke:none;stroke-width:2;stroke-linecap:round;stroke-linejoin:round;stroke-miterlimit:4;stroke-dasharray:none;stroke-opacity:1"/><path style="font-style:normal;font-variant:normal;font-weight:700;font-stretch:normal;font-size:medium;line-height:125%;font-family:Tangerine;-inkscape-font-specification:'Tangerine Bold';letter-spacing:0;word-spacing:0;fill:#eddbbc;fill-opacity:1;stroke:none;stroke-width:1px;stroke-linecap:butt;stroke-linejoin:miter;stroke-opacity:1" id="path4156" d="m 9.5,1048.3622 a 0.5,0.5 0 0 0 -0.5,0.5 0.5,0.5 0 0 0 0.5,0.5 0.5,0.5 0 0 0 0.5,-0.5 0.5,0.5 0 0 0 -0.5,-0.5 z"/><path id="circle4211" d="M 14.994141,1044.2157 A 7,7 0 0 1 8,1051.1122 7,7 0 0 1 1.0058594,1044.2587 7,7 0 0 0 1,1044.3622 a 7,7 0 0 0 7,7 7,7 0 0 0 7,-7 7,7 0 0 0 -0.0059,-0.1465 z" style="opacity:1;fill:#a37836;fill-opacity:1;stroke:none;stroke-width:2;stroke-miterlimit:4;stroke-dasharray:none;stroke-opacity:1"/><path id="rect4238" d="m 11.509766,1039.581 -2.0488285,1.2167 -1.8242187,3.0508 -1.2695313,1.4883 -2.2929687,-0.2363 -0.8085938,1.5176 4.7441406,4.7441 a 7,7 0 0 0 6.9902344,-7 7,7 0 0 0 -0.585938,-2.7812 l -1.892578,-1.8926 -1.011718,-0.1074 z" style="opacity:.2;fill:url(#linearGradient4250);fill-opacity:1;stroke:none;stroke-width:2;stroke-linecap:round;stroke-linejoin:round;stroke-miterlimit:4;stroke-dasharray:none;stroke-opacity:1"/><path id="path4160" d="m 12,1045.8622 c 0,0 -1.945907,1 -3,1 -1.0540926,0 -2.5,-1.5 -2.5,-1.5 0,0 -2.8354854,-0.7138 -3,0.3 -0.1645146,1.0138 1.3244536,1.4869 2.5,1 1.9060103,-1.8679 1.9944572,-5.5774 4.3,-6.5 2.305543,-0.9226 2.408279,0.2987 2,2.2" style="fill:none;fill-rule:evenodd;stroke:url(#linearGradient4299);stroke-width:1px;stroke-linecap:butt;stroke-linejoin:miter;stroke-opacity:1"/></g></g></svg>