<svg xmlns="http://www.w3.org/2000/svg" xmlns:svg="http://www.w3.org/2000/svg" xmlns:xlink="http://www.w3.org/1999/xlink" id="svg2" width="32" height="32" version="1.1" viewBox="0 0 32 32"><defs id="defs4"><linearGradient id="linearGradient4162"><stop id="stop4164" offset="0" style="stop-color:#f3e0c1;stop-opacity:1"/><stop id="stop4166" offset="1" style="stop-color:#fff7eb;stop-opacity:1"/></linearGradient><linearGradient id="linearGradient4190" x1="22.385" x2="39.824" y1="18.387" y2="35.825" gradientTransform="matrix(0.75248844,0,0,0.75248844,-2.19148,1019.1599)" gradientUnits="userSpaceOnUse" xlink:href="#d-5"/><linearGradient id="d-5" x2="0" y1="531.79" y2="544.79" gradientTransform="matrix(0.70711,-0.70711,0.70711,0.70711,-273.44,450.74)" gradientUnits="userSpaceOnUse"><stop id="stop4286"/><stop id="stop4288" offset="1" stop-opacity="0"/></linearGradient><linearGradient id="linearGradient4386" x2="0" y1="538.8" y2="505.8" gradientTransform="matrix(1.45455,0,0,1,-198.81,-31)" gradientUnits="userSpaceOnUse"><stop id="stop4390" offset="0" stop-color="#e8b971"/><stop id="stop4388" offset="1" stop-color="#bd8d48"/></linearGradient><linearGradient id="linearGradient4221" x1="16.115" x2="16.115" y1="1021.492" y2="1051.069" gradientUnits="userSpaceOnUse" xlink:href="#linearGradient4386"/><linearGradient id="linearGradient4240" x1="15.007" x2="15.007" y1="23.085" y2="6.663" gradientTransform="translate(0,1020.3622)" gradientUnits="userSpaceOnUse" xlink:href="#linearGradient4162"/><linearGradient id="linearGradient4266" x1="18.463" x2="22.927" y1="24.65" y2="29.115" gradientTransform="translate(0,1020.3622)" gradientUnits="userSpaceOnUse" xlink:href="#d-5"/><linearGradient id="linearGradient4268" x1="14.621" x2="18.822" y1="26.454" y2="30.655" gradientTransform="translate(0,1020.3622)" gradientUnits="userSpaceOnUse" xlink:href="#d-5"/><linearGradient id="linearGradient4270" x1="10.661" x2="16.829" y1="24.648" y2="30.816" gradientTransform="translate(0,1020.3622)" gradientUnits="userSpaceOnUse" xlink:href="#d-5"/></defs><metadata id="metadata7"/><g id="layer1" transform="translate(0,-1020.3622)"><circle style="opacity:1;fill:url(#linearGradient4221);fill-opacity:1;stroke:none;stroke-width:2;stroke-miterlimit:4;stroke-dasharray:none;stroke-opacity:1" id="path4136" cx="16" cy="1036.362" r="15"/><path style="opacity:1;fill:#a37836;fill-opacity:1;stroke:none;stroke-width:2;stroke-miterlimit:4;stroke-dasharray:none;stroke-opacity:1" id="circle4191" d="M 30.980469,1035.7763 A 15,15 0 0 1 16,1050.3622 15,15 0 0 1 1.0195312,1035.9481 15,15 0 0 0 1,1036.3622 a 15,15 0 0 0 15,15 15,15 0 0 0 15,-15 15,15 0 0 0 -0.01953,-0.5859 z"/><path style="opacity:.2;fill:url(#linearGradient4270);fill-opacity:1;stroke:none;stroke-width:2;stroke-linecap:round;stroke-linejoin:round;stroke-miterlimit:4;stroke-dasharray:none;stroke-opacity:1" id="rect4245" d="m 12.464844,1044.6962 -2.126953,2.1269 4.480468,4.4805 a 15,15 0 0 0 1.181641,0.059 15,15 0 0 0 2.845703,-0.2852 l -6.380859,-6.3808 z"/><path style="font-style:normal;font-variant:normal;font-weight:700;font-stretch:normal;font-size:medium;line-height:125%;font-family:Tangerine;-inkscape-font-specification:'Tangerine Bold';letter-spacing:0;word-spacing:0;fill:#eddbbc;fill-opacity:1;stroke:none;stroke-width:1px;stroke-linecap:butt;stroke-linejoin:miter;stroke-opacity:1" id="path4227" d="m 11.5,1044.3622 a 1.4999999,1.4999999 0 0 0 -1.5,1.5 1.4999999,1.4999999 0 0 0 1.5,1.5 1.4999999,1.4999999 0 0 0 1.5,-1.5 1.4999999,1.4999999 0 0 0 -1.5,-1.5 z"/><path style="opacity:.2;fill:url(#linearGradient4266);fill-opacity:1;stroke:none;stroke-width:2;stroke-linecap:round;stroke-linejoin:round;stroke-miterlimit:4;stroke-dasharray:none;stroke-opacity:1" id="rect4249" d="m 20.427734,1044.663 -2.126953,2.1289 3.421875,3.4219 a 15,15 0 0 0 2.757813,-1.4981 l -4.052735,-4.0527 z"/><path style="font-style:normal;font-variant:normal;font-weight:700;font-stretch:normal;font-size:medium;line-height:125%;font-family:Tangerine;-inkscape-font-specification:'Tangerine Bold';letter-spacing:0;word-spacing:0;fill:#eddbbc;fill-opacity:1;stroke:none;stroke-width:1px;stroke-linecap:butt;stroke-linejoin:miter;stroke-opacity:1" id="path4225" d="m 19.5,1044.3622 a 1.4999999,1.4999999 0 0 0 -1.5,1.5 1.4999999,1.4999999 0 0 0 1.5,1.5 1.4999999,1.4999999 0 0 0 1.5,-1.5 1.4999999,1.4999999 0 0 0 -1.5,-1.5 z"/><path style="opacity:.2;fill:url(#linearGradient4268);fill-opacity:1;stroke:none;stroke-width:2;stroke-linecap:round;stroke-linejoin:round;stroke-miterlimit:4;stroke-dasharray:none;stroke-opacity:1" id="rect4247" d="m 16.480469,1046.7196 -2.128907,2.1289 2.484376,2.4844 a 15,15 0 0 0 3.599609,-0.6582 l -3.955078,-3.9551 z"/><path style="font-style:normal;font-variant:normal;font-weight:700;font-stretch:normal;font-size:medium;line-height:125%;font-family:Tangerine;-inkscape-font-specification:'Tangerine Bold';letter-spacing:0;word-spacing:0;fill:#eddbbc;fill-opacity:1;stroke:none;stroke-width:1px;stroke-linecap:butt;stroke-linejoin:miter;stroke-opacity:1" id="path4201" d="m 15.5,1046.3622 a 1.5000004,1.5000004 0 0 0 -1.5,1.5 1.5000004,1.5000004 0 0 0 1.5,1.5 1.5000004,1.5000004 0 0 0 1.5,-1.5 1.5000004,1.5000004 0 0 0 -1.5,-1.5 z"/><path style="opacity:.2;fill:url(#linearGradient4190);fill-opacity:1;stroke:none;stroke-width:4;stroke-linecap:butt;stroke-linejoin:miter;stroke-miterlimit:4;stroke-dasharray:none;stroke-opacity:1" id="rect4152" d="m 24.330078,1027.1727 -1.597656,0.127 -2.894531,1.291 -2.015625,2.3457 -1.460938,4.5879 -1.523437,3.8828 -1.22461,1.8731 -3.177734,-1.4981 -2.0820314,0.2031 -0.9199218,1.0352 -0.0625,1.2793 0.017578,0.6523 8.4003902,8.4004 a 15,15 0 0 0 0.210938,0.01 15,15 0 0 0 15,-15 15,15 0 0 0 -0.289062,-2.8633 l -6.38086,-6.3262 z"/><path style="font-style:normal;font-variant:normal;font-weight:700;font-stretch:normal;font-size:medium;line-height:125%;font-family:Tangerine;-inkscape-font-specification:'Tangerine Bold';letter-spacing:0;word-spacing:0;fill:url(#linearGradient4240);fill-opacity:1;stroke:none;stroke-width:1px;stroke-linecap:butt;stroke-linejoin:miter;stroke-opacity:1" id="path4231" d="m 23.261719,1026.8642 c -0.839079,0 -1.644064,0.2206 -2.416016,0.664 -0.755172,0.4264 -1.469362,1.0488 -2.140625,1.8672 -0.654481,0.8015 -1.250098,1.79 -1.787109,2.9668 -0.537009,1.1594 -0.996835,2.4729 -1.382813,3.9395 -0.268504,1.0402 -0.538135,1.9185 -0.80664,2.6347 -0.268505,0.7163 -0.544792,1.3117 -0.830078,1.7891 -0.62092,-0.2387 -1.233753,-0.958 -1.837891,-1.1113 -0.587355,-0.1706 -1.191582,-0.2559 -1.8125,-0.2559 -0.4866656,0 -0.9312273,0.077 -1.3339845,0.2305 -0.3859775,0.1534 -0.720573,0.3407 -1.0058594,0.5625 -0.285288,0.2216 -0.5118726,0.459 -0.6796875,0.7148 C 7.0774812,1041.1237 7,1041.8885 7,1042.1102 c 0,0.3581 0.168275,0.656 0.5039062,0.8946 0.3356321,0.2388 0.8404557,0.3574 1.5117188,0.3574 1.778847,0 3.280803,-0.4682 4.505859,-1.4062 0.771953,0.3413 1.55972,0.6638 2.365235,0.9707 0.822298,0.2899 1.728636,0.4355 2.71875,0.4355 1.124365,0 2.022096,-0.2373 2.693359,-0.7148 0.671264,-0.4944 1.056227,-1.126 1.458984,-2.0469 0.01678,-0.1029 -0.0051,-0.1714 -0.07227,-0.2051 -0.05034,-0.051 -0.110607,-0.051 -0.177735,0 -0.285284,0.5798 -0.495318,0.9468 -0.93164,1.2539 -0.436322,0.3068 -1.074985,0.4609 -1.914063,0.4609 -1.006895,0 -1.928498,-0.1122 -2.767578,-0.3339 -0.822298,-0.2387 -1.612016,-0.5032 -2.367187,-0.793 1.040458,-1.2448 1.856004,-3.0099 2.443359,-5.2949 0.352414,-1.4325 0.695618,-2.6252 1.03125,-3.5801 0.335632,-0.9549 0.696055,-1.7125 1.082031,-2.2754 0.385976,-0.5798 0.806663,-0.9073 1.259766,-1.1289 0.469884,-0.2388 1.022457,-0.3555 1.660156,-0.3555 0.469885,0 0.854184,0.086 1.15625,0.2559 0.318851,0.1534 0.554043,0.3575 0.705078,0.6133 0.151039,0.2558 0.237131,0.4627 0.253907,0.7695 0.01679,0.307 -0.02627,0.9119 -0.126953,1.2188 -0.01679,0.086 0.0071,0.1458 0.07422,0.1796 0.08391,0.035 0.16139,0.027 0.228516,-0.025 0.167816,-0.2899 0.325528,-0.957 0.476562,-1.4003 0.151036,-0.4606 0.228519,-0.864 0.228519,-1.2051 0,-0.5287 -0.161619,-0.9701 -0.480469,-1.3281 -0.318849,-0.3753 -0.737583,-0.5625 -1.257812,-0.5625 z M 9.140625,1040.204 c 0.7216081,0 1.401364,0.1004 2.039063,0.3047 0.6377,0.2047 1.267752,0.9714 1.888671,1.2441 -0.385976,0.3752 -0.82388,0.6292 -1.310547,0.7657 -0.469884,0.1191 -1.005237,0.1796 -1.609374,0.1796 -0.6880457,0 -1.2273049,-0.1102 -1.6132818,-0.332 -0.3691949,-0.2217 -0.5527342,-1.0279 -0.5527343,-1.3691 0,-0.5285 0.3862503,-0.793 1.1582031,-0.793 z"/></g></svg>